<svg version="1.1" id="Layer_1" xmlns="http://www.w3.org/2000/svg" xmlns:xlink="http://www.w3.org/1999/xlink" x="0px" y="0px"
	 width="100%" viewBox="0 0 634 588" enable-background="new 0 0 634 588" xml:space="preserve">
<path fill="#000000" opacity="1.000000" stroke="none" 
	d="
M366.000000,589.000000 
	C244.000000,589.000000 122.500000,589.000000 1.000000,589.000000 
	C1.000000,393.000000 1.000000,197.000000 1.000000,1.000000 
	C212.333328,1.000000 423.666656,1.000000 635.000000,1.000000 
	C635.000000,197.000000 635.000000,393.000000 635.000000,589.000000 
	C545.500000,589.000000 456.000000,589.000000 366.000000,589.000000 
M432.999725,448.499695 
	C447.537659,439.919678 462.121185,431.415771 476.598938,422.735352 
	C488.019135,415.888184 499.277435,408.771240 510.680206,401.894501 
	C513.366211,400.274628 513.623108,399.028717 511.335846,396.747162 
	C507.596008,393.016724 504.164551,388.978180 500.580292,385.090546 
	C488.592804,372.088318 476.606659,359.084808 464.598511,346.101654 
	C452.019104,332.500824 439.411194,318.926361 426.822601,305.334015 
	C414.352997,291.870209 401.893250,278.397308 389.426697,264.930634 
	C376.960358,251.464172 364.485321,238.005768 352.024597,224.534134 
	C339.789978,211.306961 327.572021,198.064407 315.340424,184.834457 
	C302.995941,171.482452 290.687317,158.096924 278.281769,144.801849 
	C267.323120,133.057434 256.242584,121.426880 245.236557,109.726585 
	C240.816528,105.027725 236.424149,100.302162 232.067001,95.544968 
	C217.906189,80.084000 203.738846,64.628792 189.638443,49.112820 
	C185.637283,44.709980 181.564835,45.310539 179.017334,50.722084 
	C172.441223,64.691406 165.735626,78.599731 159.087250,92.535049 
	C148.446167,114.839172 137.813889,137.147476 127.169800,159.450150 
	C116.807556,181.162308 106.429504,202.866913 96.068756,224.579788 
	C85.149254,247.463638 74.270248,270.366852 63.318214,293.235138 
	C57.272373,305.859039 51.178886,318.461212 44.973278,331.007111 
	C42.380455,336.249023 41.816952,341.726715 45.284470,346.282318 
	C49.364937,351.643250 53.852562,357.248962 59.399937,360.837250 
	C77.933228,372.825439 96.925545,384.117157 115.918114,395.378693 
	C136.450760,407.553436 157.202438,419.358215 177.819870,431.390686 
	C201.244797,445.061615 224.622299,458.813812 248.029068,472.515900 
	C264.139496,481.946777 280.339111,491.228180 296.353058,500.819824 
	C304.884949,505.930023 313.975677,508.886383 323.810944,507.829498 
	C333.234131,506.816864 341.807709,503.059753 350.008942,498.089630 
	C377.355591,481.517029 404.914337,465.294495 432.999725,448.499695 
M342.503448,170.998947 
	C341.563904,171.945007 340.721191,173.019470 339.667511,173.814148 
	C335.817596,176.717636 336.286652,179.665268 339.280609,182.875229 
	C347.537872,191.728226 355.758087,200.615936 363.967834,209.513077 
	C375.775421,222.309296 387.537354,235.147644 399.361206,247.928772 
	C416.040833,265.958740 432.730774,283.979370 449.471436,301.952637 
	C460.002441,313.259064 470.645966,324.460541 481.215240,335.731384 
	C485.645599,340.455811 490.016235,345.236237 494.411041,349.993988 
	C506.120056,362.669800 517.833313,375.341705 529.528931,388.029877 
	C531.210938,389.854675 532.551514,390.229065 535.033691,388.697937 
	C551.495972,378.543365 568.149780,368.699982 584.687256,358.666321 
	C596.083252,351.752106 600.228149,340.167175 594.936646,328.298981 
	C582.466858,300.330719 569.308105,272.669678 556.432373,244.882370 
	C550.097534,231.210953 543.704529,217.565948 537.456665,203.854843 
	C524.208496,174.781174 510.920593,145.724594 497.877930,116.558609 
	C489.369843,97.532806 481.465027,78.235413 472.814331,59.276684 
	C471.019012,55.342056 467.722321,51.355804 464.056305,49.188442 
	C458.882355,46.129581 453.201324,49.282642 447.591583,55.817333 
	C439.500580,65.242386 431.192108,74.486084 422.804230,83.649567 
	C413.390869,93.933403 403.704620,103.967331 394.281677,114.242546 
	C377.132935,132.942352 360.091003,151.740067 342.503448,170.998947 
z"/>
<path fill="#FF9933" opacity="1.000000" stroke="none" 
	d="
M432.695770,448.718750 
	C404.914337,465.294495 377.355591,481.517029 350.008942,498.089630 
	C341.807709,503.059753 333.234131,506.816864 323.810944,507.829498 
	C313.975677,508.886383 304.884949,505.930023 296.353058,500.819824 
	C280.339111,491.228180 264.139496,481.946777 248.029068,472.515900 
	C224.622299,458.813812 201.244797,445.061615 177.819870,431.390686 
	C157.202438,419.358215 136.450760,407.553436 115.918114,395.378693 
	C96.925545,384.117157 77.933228,372.825439 59.399937,360.837250 
	C53.852562,357.248962 49.364937,351.643250 45.284470,346.282318 
	C41.816952,341.726715 42.380455,336.249023 44.973278,331.007111 
	C51.178886,318.461212 57.272373,305.859039 63.318214,293.235138 
	C74.270248,270.366852 85.149254,247.463638 96.068756,224.579788 
	C106.429504,202.866913 116.807556,181.162308 127.169800,159.450150 
	C137.813889,137.147476 148.446167,114.839172 159.087250,92.535049 
	C165.735626,78.599731 172.441223,64.691406 179.017334,50.722084 
	C181.564835,45.310539 185.637283,44.709980 189.638443,49.112820 
	C203.738846,64.628792 217.906189,80.084000 232.067001,95.544968 
	C236.424149,100.302162 240.816528,105.027725 245.236557,109.726585 
	C256.242584,121.426880 267.323120,133.057434 278.281769,144.801849 
	C290.687317,158.096924 302.995941,171.482452 315.340424,184.834457 
	C327.572021,198.064407 339.789978,211.306961 352.024597,224.534134 
	C364.485321,238.005768 376.960358,251.464172 389.426697,264.930634 
	C401.893250,278.397308 414.352997,291.870209 426.822601,305.334015 
	C439.411194,318.926361 452.019104,332.500824 464.598511,346.101654 
	C476.606659,359.084808 488.592804,372.088318 500.580292,385.090546 
	C504.164551,388.978180 507.596008,393.016724 511.335846,396.747162 
	C513.623108,399.028717 513.366211,400.274628 510.680206,401.894501 
	C499.277435,408.771240 488.019135,415.888184 476.598938,422.735352 
	C462.121185,431.415771 447.537659,439.919678 432.695770,448.718750 
z"/>
<path fill="#128807" opacity="1.000000" stroke="none" 
	d="
M342.753967,170.747925 
	C360.091003,151.740067 377.132935,132.942352 394.281677,114.242546 
	C403.704620,103.967331 413.390869,93.933403 422.804230,83.649567 
	C431.192108,74.486084 439.500580,65.242386 447.591583,55.817333 
	C453.201324,49.282642 458.882355,46.129581 464.056305,49.188442 
	C467.722321,51.355804 471.019012,55.342056 472.814331,59.276684 
	C481.465027,78.235413 489.369843,97.532806 497.877930,116.558609 
	C510.920593,145.724594 524.208496,174.781174 537.456665,203.854843 
	C543.704529,217.565948 550.097534,231.210953 556.432373,244.882370 
	C569.308105,272.669678 582.466858,300.330719 594.936646,328.298981 
	C600.228149,340.167175 596.083252,351.752106 584.687256,358.666321 
	C568.149780,368.699982 551.495972,378.543365 535.033691,388.697937 
	C532.551514,390.229065 531.210938,389.854675 529.528931,388.029877 
	C517.833313,375.341705 506.120056,362.669800 494.411041,349.993988 
	C490.016235,345.236237 485.645599,340.455811 481.215240,335.731384 
	C470.645966,324.460541 460.002441,313.259064 449.471436,301.952637 
	C432.730774,283.979370 416.040833,265.958740 399.361206,247.928772 
	C387.537354,235.147644 375.775421,222.309296 363.967834,209.513077 
	C355.758087,200.615936 347.537872,191.728226 339.280609,182.875229 
	C336.286652,179.665268 335.817596,176.717636 339.667511,173.814148 
	C340.721191,173.019470 341.563904,171.945007 342.753967,170.747925 
z"/>
</svg>