<svg xmlns="http://www.w3.org/2000/svg" xmlns:xlink="http://www.w3.org/1999/xlink" aria-hidden="true" role="img" class="iconify iconify--logos" width="35.93" height="32" preserveAspectRatio="xMidYMid meet" viewBox="0 0 256 228"><path fill="#00D8FF" d="M210.483 73.824a171.49 171.49 0 0 0-8.24-2.597c.465-1.9.893-3.777 1.273-5.621c6.238-30.281 2.16-54.676-11.769-62.708c-13.355-7.7-35.196.329-57.254 19.526a171.23 171.23 0 0 0-6.375 5.848a155.866 155.866 0 0 0-4.241-3.917C100.759 3.829 77.587-4.822 63.673 3.233C49.33 11.558 45.56 35.842 51.995 66.474a170.974 170.974 0 0 0 1.892 8.48c-3.28.932-6.445 1.924-9.474 2.98C17.309 86.698 0 98.307 0 110.027c0 11.721 17.309 23.33 44.413 33.224a145.52 145.52 0 0 0 9.798 3.038 167.467 167.467 0 0 0-2.01 9.138c-6.435 30.632-2.665 54.916 11.678 63.24c13.914 8.055 37.086-.596 60.354-20.486a145.567 145.567 0 0 0 4.319-3.987c1.98 1.82 4.069 3.56 6.258 5.201c22.058 19.197 43.899 27.226 57.254 19.527c13.929-8.032 18.007-32.427 11.769-62.708a145.016 145.016 0 0 0-1.273-5.621c2.62-.84 5.18-1.716 7.674-2.63c27.104-9.894 44.413-21.503 44.413-33.224c0-11.72-17.309-23.329-44.413-33.223zM128 155.138c-14.991 0-27.138-12.147-27.138-27.138S113.009 100.862 128 100.862S155.138 113.009 155.138 128S142.991 155.138 128 155.138z"></path></svg> 